<?xml version="1.0" standalone="no"?>
<!DOCTYPE svg PUBLIC "-//W3C//DTD SVG 20010904//EN"
 "http://www.w3.org/TR/2001/REC-SVG-20010904/DTD/svg10.dtd">
<svg version="1.0" xmlns="http://www.w3.org/2000/svg"
 width="64.000000pt" height="64.000000pt" viewBox="0 0 64.000000 64.000000"
 preserveAspectRatio="xMidYMid meet">

<g transform="translate(0.000000,64.000000) scale(0.100000,-0.100000)"
fill="#000000" stroke="none">
<path d="M203 554 c-3 -9 -1 -25 5 -35 7 -10 12 -28 12 -39 0 -11 7 -20 15
-20 11 0 15 -12 15 -49 0 -47 2 -50 28 -53 15 -2 53 -1 85 0 l57 4 0 44 c0 37
3 44 19 44 12 0 26 13 35 32 15 29 15 33 1 47 -15 15 -18 14 -31 -3 -12 -17
-12 -22 1 -36 21 -23 19 -30 -10 -30 -23 0 -25 -4 -25 -45 l0 -45 -50 0 c-42
0 -50 3 -50 19 0 10 9 21 20 24 15 4 20 14 20 36 0 17 5 31 10 31 6 0 10 9 10
19 0 20 -25 35 -41 25 -12 -7 -11 -41 1 -49 6 -3 10 -17 10 -31 0 -17 -5 -24
-20 -24 -15 0 -20 -7 -20 -25 0 -18 -5 -25 -20 -25 -17 0 -20 7 -20 50 0 38
-4 50 -15 50 -18 0 -19 23 -3 49 9 15 9 23 -1 35 -17 20 -30 20 -38 0z m32
-24 c-5 -8 -11 -8 -17 -2 -6 6 -7 16 -3 22 5 8 11 8 17 2 6 -6 7 -16 3 -22z
m240 -30 c-5 -8 -11 -8 -17 -2 -6 6 -7 16 -3 22 5 8 11 8 17 2 6 -6 7 -16 3
-22z m-120 -10 c-5 -8 -11 -8 -17 -2 -6 6 -7 16 -3 22 5 8 11 8 17 2 6 -6 7
-16 3 -22z"/>
<path d="M420 315 c0 -9 5 -15 11 -13 6 2 11 8 11 13 0 5 -5 11 -11 13 -6 2
-11 -4 -11 -13z"/>
<path d="M172 313 c29 -4 28 -3 60 -123 6 -25 10 -51 9 -58 -4 -24 24 -72 41
-72 10 0 18 7 18 15 0 10 10 15 29 15 16 0 31 -6 35 -15 3 -8 12 -15 21 -15 8
0 15 7 15 15 0 8 6 16 13 17 6 1 -26 4 -73 7 -66 5 -85 9 -85 21 0 12 17 16
82 18 48 2 85 8 91 15 5 7 15 34 21 62 17 70 6 77 -129 74 -92 -2 -105 -1
-108 14 -3 12 -13 17 -35 16 -30 -2 -30 -2 -5 -6z m267 -42 c11 -7 10 -18 -3
-65 l-17 -56 -79 0 c-66 0 -81 3 -89 18 -14 26 -24 89 -16 101 8 13 184 15
204 2z m-149 -191 c0 -5 -4 -10 -10 -10 -5 0 -10 5 -10 10 0 6 5 10 10 10 6 0
10 -4 10 -10z m100 0 c0 -5 -4 -10 -10 -10 -5 0 -10 5 -10 10 0 6 5 10 10 10
6 0 10 -4 10 -10z"/>
<path d="M462 301 c4 -13 18 -16 19 -4 0 4 -5 9 -11 12 -7 2 -11 -2 -8 -8z"/>
<path d="M480 260 c0 -5 5 -10 10 -10 6 0 10 5 10 10 0 6 -4 10 -10 10 -5 0
-10 -4 -10 -10z"/>
</g>
</svg>
